<mxfile host="app.diagrams.net" agent="Mozilla/5.0 (X11; Linux x86_64; rv:130.0) Gecko/20100101 Firefox/130.0" version="24.7.12">
  <diagram name="Physical" id="cOrUBFpCUt0MQe5bVwCN">
    <mxGraphModel dx="872" dy="611" grid="1" gridSize="10" guides="1" tooltips="1" connect="1" arrows="1" fold="1" page="1" pageScale="1" pageWidth="850" pageHeight="1100" math="0" shadow="0">
      <root>
        <mxCell id="0" />
        <mxCell id="1" parent="0" />
        <mxCell id="qYjz7G841Ori4DgI7XaR-1" value="ESC" style="rounded=1;whiteSpace=wrap;html=1;fillColor=#fff2cc;strokeColor=#d6b656;" parent="1" vertex="1">
          <mxGeometry x="155" y="90" width="120" height="60" as="geometry" />
        </mxCell>
        <mxCell id="44zcp5UVp0sCSMmnK4AD-6" value="Wifi" style="edgeStyle=isometricEdgeStyle;rounded=0;orthogonalLoop=1;jettySize=auto;html=1;exitX=1;exitY=0.5;exitDx=0;exitDy=0;entryX=0;entryY=0.5;entryDx=0;entryDy=0;startArrow=classic;startFill=1;dashed=1;fillColor=#dae8fc;strokeColor=#6c8ebf;elbow=horizontal;" parent="1" source="44zcp5UVp0sCSMmnK4AD-1" target="44zcp5UVp0sCSMmnK4AD-5" edge="1">
          <mxGeometry relative="1" as="geometry" />
        </mxCell>
        <mxCell id="44zcp5UVp0sCSMmnK4AD-1" value="XIAO ESP32S3 " style="rounded=1;whiteSpace=wrap;html=1;fillColor=#ffe6cc;strokeColor=#d79b00;" parent="1" vertex="1">
          <mxGeometry x="340" y="110" width="120" height="60" as="geometry" />
        </mxCell>
        <mxCell id="44zcp5UVp0sCSMmnK4AD-2" value="Brushed Motor" style="rounded=1;whiteSpace=wrap;html=1;fillColor=#fff2cc;strokeColor=#d6b656;" parent="1" vertex="1">
          <mxGeometry x="145" y="100" width="120" height="60" as="geometry" />
        </mxCell>
        <mxCell id="44zcp5UVp0sCSMmnK4AD-3" value="ESC" style="rounded=1;whiteSpace=wrap;html=1;fillColor=#fff2cc;strokeColor=#d6b656;" parent="1" vertex="1">
          <mxGeometry x="135" y="110" width="120" height="60" as="geometry" />
        </mxCell>
        <mxCell id="44zcp5UVp0sCSMmnK4AD-4" value="PWM" style="edgeStyle=orthogonalEdgeStyle;rounded=0;orthogonalLoop=1;jettySize=auto;html=1;exitX=0;exitY=0.5;exitDx=0;exitDy=0;entryX=1;entryY=0.5;entryDx=0;entryDy=0;" parent="1" source="44zcp5UVp0sCSMmnK4AD-1" target="44zcp5UVp0sCSMmnK4AD-3" edge="1">
          <mxGeometry relative="1" as="geometry" />
        </mxCell>
        <mxCell id="44zcp5UVp0sCSMmnK4AD-5" value="Laptop" style="rounded=1;whiteSpace=wrap;html=1;fillColor=#dae8fc;strokeColor=#6c8ebf;" parent="1" vertex="1">
          <mxGeometry x="535" y="110" width="120" height="60" as="geometry" />
        </mxCell>
        <mxCell id="qYjz7G841Ori4DgI7XaR-3" value="Elastic Band" style="edgeStyle=orthogonalEdgeStyle;rounded=0;orthogonalLoop=1;jettySize=auto;html=1;exitX=0.5;exitY=1;exitDx=0;exitDy=0;entryX=0.5;entryY=0;entryDx=0;entryDy=0;startArrow=classic;startFill=1;" parent="1" source="qYjz7G841Ori4DgI7XaR-2" target="44zcp5UVp0sCSMmnK4AD-1" edge="1">
          <mxGeometry relative="1" as="geometry" />
        </mxCell>
        <mxCell id="qYjz7G841Ori4DgI7XaR-2" value="Balloon" style="rounded=1;whiteSpace=wrap;html=1;fillColor=#f8cecc;strokeColor=#b85450;" parent="1" vertex="1">
          <mxGeometry x="340" y="10" width="120" height="60" as="geometry" />
        </mxCell>
        <mxCell id="1N3a8tB_tqZHnI649wv6-1" value="USB/Bluetooth" style="edgeStyle=orthogonalEdgeStyle;rounded=0;orthogonalLoop=1;jettySize=auto;html=1;exitX=0.5;exitY=0;exitDx=0;exitDy=0;entryX=0.5;entryY=1;entryDx=0;entryDy=0;" parent="1" source="1N3a8tB_tqZHnI649wv6-2" target="44zcp5UVp0sCSMmnK4AD-5" edge="1">
          <mxGeometry relative="1" as="geometry">
            <mxPoint x="590" y="180" as="targetPoint" />
          </mxGeometry>
        </mxCell>
        <mxCell id="1N3a8tB_tqZHnI649wv6-2" value="Xbox Controller" style="rounded=1;whiteSpace=wrap;html=1;fillColor=#d5e8d4;strokeColor=#82b366;" parent="1" vertex="1">
          <mxGeometry x="535" y="220" width="120" height="60" as="geometry" />
        </mxCell>
        <mxCell id="vqW2lg1O7NibtrREFim5-1" value="Physical" style="shape=umlFrame;whiteSpace=wrap;html=1;pointerEvents=0;width=70;height=30;" vertex="1" parent="1">
          <mxGeometry x="20" width="640" height="290" as="geometry" />
        </mxCell>
        <mxCell id="vqW2lg1O7NibtrREFim5-2" value="Sequence Diagram" style="shape=umlFrame;whiteSpace=wrap;html=1;pointerEvents=0;width=120;height=30;" vertex="1" parent="1">
          <mxGeometry x="20" y="300" width="640" height="590" as="geometry" />
        </mxCell>
        <mxCell id="B4eYdbC0QAZbxyzzT0mU-1" value="" style="endArrow=oval;html=1;rounded=0;endFill=1;startArrow=classic;startFill=1;" edge="1" parent="1">
          <mxGeometry width="50" height="50" relative="1" as="geometry">
            <mxPoint x="360" y="870" as="sourcePoint" />
            <mxPoint x="359.5" y="430" as="targetPoint" />
          </mxGeometry>
        </mxCell>
        <mxCell id="B4eYdbC0QAZbxyzzT0mU-2" value="Student" style="shape=umlActor;verticalLabelPosition=bottom;verticalAlign=top;html=1;outlineConnect=0;" vertex="1" parent="1">
          <mxGeometry x="105" y="340" width="30" height="60" as="geometry" />
        </mxCell>
        <mxCell id="B4eYdbC0QAZbxyzzT0mU-3" value="Laptop" style="text;html=1;align=center;verticalAlign=middle;whiteSpace=wrap;rounded=0;" vertex="1" parent="1">
          <mxGeometry x="330" y="400" width="60" height="30" as="geometry" />
        </mxCell>
        <mxCell id="B4eYdbC0QAZbxyzzT0mU-4" value="ESP32" style="text;html=1;align=center;verticalAlign=middle;whiteSpace=wrap;rounded=0;" vertex="1" parent="1">
          <mxGeometry x="560" y="400" width="60" height="30" as="geometry" />
        </mxCell>
        <mxCell id="B4eYdbC0QAZbxyzzT0mU-5" value="" style="endArrow=oval;html=1;rounded=0;endFill=1;startArrow=classic;startFill=1;" edge="1" parent="1">
          <mxGeometry width="50" height="50" relative="1" as="geometry">
            <mxPoint x="590" y="870" as="sourcePoint" />
            <mxPoint x="589.5" y="430" as="targetPoint" />
          </mxGeometry>
        </mxCell>
        <mxCell id="B4eYdbC0QAZbxyzzT0mU-6" value="ByteArray" style="rounded=0;orthogonalLoop=1;jettySize=auto;html=1;exitX=1;exitY=0.5;exitDx=0;exitDy=0;entryX=0;entryY=0.5;entryDx=0;entryDy=0;" edge="1" parent="1" source="B4eYdbC0QAZbxyzzT0mU-16" target="B4eYdbC0QAZbxyzzT0mU-8">
          <mxGeometry relative="1" as="geometry" />
        </mxCell>
        <mxCell id="B4eYdbC0QAZbxyzzT0mU-7" value="" style="endArrow=none;html=1;rounded=0;" edge="1" parent="1" source="B4eYdbC0QAZbxyzzT0mU-9" target="B4eYdbC0QAZbxyzzT0mU-8">
          <mxGeometry width="50" height="50" relative="1" as="geometry">
            <mxPoint x="359.5" y="870" as="sourcePoint" />
            <mxPoint x="359.5" y="430" as="targetPoint" />
          </mxGeometry>
        </mxCell>
        <mxCell id="B4eYdbC0QAZbxyzzT0mU-8" value="Receive Movement" style="rounded=1;whiteSpace=wrap;html=1;fillColor=#dae8fc;strokeColor=#6c8ebf;" vertex="1" parent="1">
          <mxGeometry x="330" y="470" width="60" height="30" as="geometry" />
        </mxCell>
        <mxCell id="B4eYdbC0QAZbxyzzT0mU-9" value="Visualize Movement" style="rounded=1;whiteSpace=wrap;html=1;fillColor=#dae8fc;strokeColor=#6c8ebf;" vertex="1" parent="1">
          <mxGeometry x="330" y="500" width="60" height="30" as="geometry" />
        </mxCell>
        <mxCell id="B4eYdbC0QAZbxyzzT0mU-10" value="Receive movement bytestream" style="rounded=1;whiteSpace=wrap;html=1;fillColor=#d5e8d4;strokeColor=#82b366;" vertex="1" parent="1">
          <mxGeometry x="560" y="630" width="60" height="50" as="geometry" />
        </mxCell>
        <mxCell id="B4eYdbC0QAZbxyzzT0mU-11" value="Bytestream" style="rounded=0;orthogonalLoop=1;jettySize=auto;html=1;exitX=1;exitY=0.5;exitDx=0;exitDy=0;entryX=0;entryY=0.5;entryDx=0;entryDy=0;" edge="1" parent="1" source="B4eYdbC0QAZbxyzzT0mU-13" target="B4eYdbC0QAZbxyzzT0mU-10">
          <mxGeometry relative="1" as="geometry" />
        </mxCell>
        <mxCell id="B4eYdbC0QAZbxyzzT0mU-12" value="&lt;font style=&quot;font-size: 12px;&quot;&gt;Process Controller Data&lt;br&gt;&lt;/font&gt;" style="rounded=1;whiteSpace=wrap;html=1;fillColor=#dae8fc;strokeColor=#6c8ebf;" vertex="1" parent="1">
          <mxGeometry x="330" y="530" width="60" height="50" as="geometry" />
        </mxCell>
        <mxCell id="B4eYdbC0QAZbxyzzT0mU-13" value="Translate to WiFi format" style="rounded=1;whiteSpace=wrap;html=1;fillColor=#dae8fc;strokeColor=#6c8ebf;" vertex="1" parent="1">
          <mxGeometry x="330" y="580" width="60" height="50" as="geometry" />
        </mxCell>
        <mxCell id="B4eYdbC0QAZbxyzzT0mU-14" value="Drive I/O Interface" style="rounded=1;whiteSpace=wrap;html=1;fillColor=#d5e8d4;strokeColor=#82b366;" vertex="1" parent="1">
          <mxGeometry x="560" y="680" width="60" height="50" as="geometry" />
        </mxCell>
        <mxCell id="B4eYdbC0QAZbxyzzT0mU-15" value="" style="endArrow=oval;html=1;rounded=0;endFill=1;startArrow=classic;startFill=1;" edge="1" parent="1">
          <mxGeometry width="50" height="50" relative="1" as="geometry">
            <mxPoint x="120" y="870" as="sourcePoint" />
            <mxPoint x="119.5" y="430" as="targetPoint" />
          </mxGeometry>
        </mxCell>
        <mxCell id="B4eYdbC0QAZbxyzzT0mU-16" value="Move Controller" style="rounded=1;whiteSpace=wrap;html=1;fillColor=#d5e8d4;strokeColor=#82b366;" vertex="1" parent="1">
          <mxGeometry x="80" y="440" width="80" height="30" as="geometry" />
        </mxCell>
        <mxCell id="KfOM6wWy2JIJxj5omZX1-1" style="edgeStyle=orthogonalEdgeStyle;rounded=0;orthogonalLoop=1;jettySize=auto;html=1;exitX=1;exitY=0.5;exitDx=0;exitDy=0;entryX=0;entryY=0.5;entryDx=0;entryDy=0;" edge="1" parent="1" source="KfOM6wWy2JIJxj5omZX1-2" target="KfOM6wWy2JIJxj5omZX1-4">
          <mxGeometry relative="1" as="geometry" />
        </mxCell>
        <mxCell id="KfOM6wWy2JIJxj5omZX1-2" value="Turn on Blimp" style="rounded=1;whiteSpace=wrap;html=1;fillColor=#f8cecc;strokeColor=#b85450;" vertex="1" parent="1">
          <mxGeometry x="40" y="940" width="120" height="60" as="geometry" />
        </mxCell>
        <mxCell id="KfOM6wWy2JIJxj5omZX1-3" style="edgeStyle=orthogonalEdgeStyle;rounded=0;orthogonalLoop=1;jettySize=auto;html=1;exitX=1;exitY=0.5;exitDx=0;exitDy=0;entryX=0;entryY=0.5;entryDx=0;entryDy=0;" edge="1" parent="1" source="KfOM6wWy2JIJxj5omZX1-4" target="KfOM6wWy2JIJxj5omZX1-6">
          <mxGeometry relative="1" as="geometry" />
        </mxCell>
        <mxCell id="KfOM6wWy2JIJxj5omZX1-4" value="Connect Xbox Controller to Laptop" style="rounded=1;whiteSpace=wrap;html=1;fillColor=#d5e8d4;strokeColor=#82b366;" vertex="1" parent="1">
          <mxGeometry x="200" y="940" width="120" height="60" as="geometry" />
        </mxCell>
        <mxCell id="KfOM6wWy2JIJxj5omZX1-5" style="edgeStyle=orthogonalEdgeStyle;rounded=0;orthogonalLoop=1;jettySize=auto;html=1;exitX=1;exitY=0.5;exitDx=0;exitDy=0;entryX=0;entryY=0.5;entryDx=0;entryDy=0;" edge="1" parent="1" source="KfOM6wWy2JIJxj5omZX1-6" target="KfOM6wWy2JIJxj5omZX1-7">
          <mxGeometry relative="1" as="geometry" />
        </mxCell>
        <mxCell id="KfOM6wWy2JIJxj5omZX1-6" value="Connect Laptop To ESP32&#39;s WiFi network" style="rounded=1;whiteSpace=wrap;html=1;fillColor=#ffe6cc;strokeColor=#d79b00;" vertex="1" parent="1">
          <mxGeometry x="350" y="940" width="120" height="60" as="geometry" />
        </mxCell>
        <mxCell id="KfOM6wWy2JIJxj5omZX1-7" value="Start Python Script on Laptop for blimp control" style="rounded=1;whiteSpace=wrap;html=1;fillColor=#dae8fc;strokeColor=#6c8ebf;" vertex="1" parent="1">
          <mxGeometry x="520" y="940" width="120" height="60" as="geometry" />
        </mxCell>
        <mxCell id="KfOM6wWy2JIJxj5omZX1-8" value="Procedure Diagram" style="shape=umlFrame;whiteSpace=wrap;html=1;pointerEvents=0;width=100;height=30;" vertex="1" parent="1">
          <mxGeometry x="20" y="900" width="640" height="140" as="geometry" />
        </mxCell>
        <mxCell id="KfOM6wWy2JIJxj5omZX1-11" value="ESC" style="rounded=1;whiteSpace=wrap;html=1;fillColor=#e1d5e7;strokeColor=#9673a6;" vertex="1" parent="1">
          <mxGeometry x="155" y="200" width="120" height="60" as="geometry" />
        </mxCell>
        <mxCell id="KfOM6wWy2JIJxj5omZX1-12" value="Brushed Motor" style="rounded=1;whiteSpace=wrap;html=1;fillColor=#e1d5e7;strokeColor=#9673a6;" vertex="1" parent="1">
          <mxGeometry x="145" y="210" width="120" height="60" as="geometry" />
        </mxCell>
        <mxCell id="KfOM6wWy2JIJxj5omZX1-13" value="Motor" style="rounded=1;whiteSpace=wrap;html=1;fillColor=#e1d5e7;strokeColor=#9673a6;" vertex="1" parent="1">
          <mxGeometry x="135" y="220" width="120" height="60" as="geometry" />
        </mxCell>
        <mxCell id="KfOM6wWy2JIJxj5omZX1-14" style="edgeStyle=orthogonalEdgeStyle;rounded=0;orthogonalLoop=1;jettySize=auto;html=1;exitX=0.5;exitY=1;exitDx=0;exitDy=0;entryX=0.5;entryY=0;entryDx=0;entryDy=0;" edge="1" parent="1" source="44zcp5UVp0sCSMmnK4AD-3" target="KfOM6wWy2JIJxj5omZX1-13">
          <mxGeometry relative="1" as="geometry" />
        </mxCell>
        <mxCell id="KfOM6wWy2JIJxj5omZX1-15" value="Three-Phase Sinusoidal PWM" style="edgeLabel;html=1;align=center;verticalAlign=middle;resizable=0;points=[];" vertex="1" connectable="0" parent="KfOM6wWy2JIJxj5omZX1-14">
          <mxGeometry x="-0.2" relative="1" as="geometry">
            <mxPoint y="-10" as="offset" />
          </mxGeometry>
        </mxCell>
      </root>
    </mxGraphModel>
  </diagram>
</mxfile>
